Coordinates
version=1
nRows=21
nColumns=28
inDegrees=yes

Units are S.I. units (second, meters, Newtons, ...)
Angles are in degrees.

endheader
time	pelvis_tilt	pelvis_list	pelvis_rotation	pelvis_tx	pelvis_ty	pelvis_tz	hip_flexion_r	hip_adduction_r	hip_rotation_r	knee_angle_r	ankle_angle_r	subtalar_angle_r	mtp_angle_r	hip_flexion_l	hip_adduction_l	hip_rotation_l	knee_angle_l	socket_flexion	socket_adduction	socket_rotation	socket_tx	socket_ty	socket_tz	foot_flex	lumbar_extension	lumbar_bending	lumbar_rotation
      0.00000000	     -1.31645851	     -1.17502582	     -0.88992521	     -0.80981336	      0.97245695	      0.29814907	    -21.71696002	      2.12783675	      5.61043090	     -5.86801030	     -4.57430949	    -22.49312768	     10.63777976	     21.84402086	     -1.82133050	      4.98259115	      0.89919244	      0.00000000	      0.00000000	      0.00000000	      0.00000000	     -0.00052063	      0.00000000	     -0.57745517	     -7.48853255	     -0.68221560	      3.20728219
      0.00416667	     -1.24915314	     -0.93818803	     -0.92544252	     -0.80380815	      0.97134413	      0.29752254	    -22.26955818	      1.83164430	      5.78909031	     -5.59123047	     -4.89531911	    -22.49352244	     10.74069973	     21.69452390	     -1.56696571	      4.94014744	      0.57614303	      0.00000000	      0.00000000	      0.00000000	      0.00000000	     -0.00085224	      0.00000000	     -1.20899381	     -7.45710237	     -1.01004090	      3.30818708
      0.00833333	     -1.24322575	     -0.90140030	     -0.98643052	     -0.79794524	      0.97009920	      0.29691182	    -22.48114126	      1.74811224	      5.81699712	     -5.82435322	     -4.96819030	    -22.49616609	     10.75894418	     21.69426193	     -1.52967290	      4.95784625	      0.12860408	      0.00000000	      0.00000000	      0.00000000	      0.00000000	     -0.00129828	      0.00000000	     -1.68118995	     -7.39652504	     -1.09637113	      3.32577869
      0.01250000	     -1.24306297	     -0.84682169	     -1.05997843	     -0.79189193	      0.96884201	      0.29628901	    -22.67006698	      1.63682522	      5.81282494	     -6.09429643	     -5.07644038	    -22.49972903	     10.78124546	     21.68777098	     -1.48020731	      4.98737194	     -0.31802999	      0.00000000	      0.00000000	      0.00000000	      0.00000000	     -0.00175756	      0.00000000	     -2.20631072	     -7.33377770	     -1.20045114	      3.35597085
      0.01666667	     -1.24615689	     -0.77339673	     -1.12541897	     -0.78564024	      0.96758519	      0.29561733	    -22.83920833	      1.51035762	      5.77601692	     -6.41394089	     -5.22353947	    -22.50728500	     10.81249568	     21.67158195	     -1.40076416	      5.00568641	     -0.75959374	      0.00000000	      0.00000000	      0.00000000	      0.00000000	     -0.00222460	      0.00000000	     -2.77570514	     -7.26108024	     -1.32932683	      3.39911872
      0.02083333	     -1.26010851	     -0.57199355	     -1.20581912	     -0.77907796	      0.96634971	      0.29500858	    -22.93124023	      1.23070199	      5.44345487	     -6.85915102	     -5.59264224	    -22.57288317	     11.02405634	     21.60050108	     -1.19958564	      4.91655419	     -1.11939120	      0.00000000	      0.00000000	      0.00000000	      0.00000000	     -0.00259423	      0.00000000	     -3.41748519	     -7.13549743	     -1.62691103	      3.57944261
      0.02500000	     -1.26347962	     -0.50009564	     -1.24929599	     -0.77261231	      0.96511777	      0.29430847	    -23.11216905	      1.11892191	      5.48407310	     -7.16174706	     -5.72813181	    -22.54977874	     11.08683536	     21.61013525	     -1.11113457	      4.93052680	     -1.64169777	      0.00000000	      0.00000000	      0.00000000	      0.00000000	     -0.00311297	      0.00000000	     -3.96668625	     -7.07257261	     -1.76160733	      3.60234780
      0.02916667	     -1.27174572	     -0.40556974	     -1.28959193	     -0.76605677	      0.96391782	      0.29355809	    -23.24226484	      0.97770080	      5.44256412	     -7.55186126	     -5.93788096	    -22.53712688	     11.15386639	     21.60229005	     -0.99330605	      4.91729303	     -2.13299252	      0.00000000	      0.00000000	      0.00000000	      0.00000000	     -0.00366880	      0.00000000	     -4.58155305	     -6.99591877	     -1.91718831	      3.63119067
      0.03333333	     -1.28117205	     -0.29364523	     -1.31823011	     -0.75947605	      0.96276848	      0.29276377	    -23.33275298	      0.82019003	      5.37408185	     -7.99686297	     -6.19817449	    -22.52451114	     11.22280571	     21.60628971	     -0.84821727	      4.88414947	     -2.64605706	      0.00000000	      0.00000000	      0.00000000	      0.00000000	     -0.00421676	      0.00000000	     -5.21551786	     -6.93201250	     -2.10012558	      3.65788453
      0.03750000	     -1.40889702	      0.09622230	     -1.32712708	     -0.75236374	      0.96145457	      0.29197679	    -23.14030937	      0.29906672	      4.32571897	     -8.67322623	     -7.18377481	    -22.43939423	     16.55088582	     21.62698515	     -0.40953381	      4.72673667	     -3.03168443	      0.00000000	      0.00000000	      0.00000000	      0.00000000	     -0.00455202	      0.00000000	     -5.81385116	     -6.63500796	     -2.63249845	      3.76209020
      0.04166667	     -1.39822124	      0.18618830	     -1.30964298	     -0.74577279	      0.96045061	      0.29107982	    -23.24490096	      0.19038142	      4.37180296	     -9.11822644	     -7.40346257	    -22.40434565	     16.54454446	     21.63521540	     -0.25899352	      4.71463426	     -3.60686392	      0.00000000	      0.00000000	      0.00000000	      0.00000000	     -0.00515649	      0.00000000	     -6.36145691	     -6.60954706	     -2.77920379	      3.75526423
      0.04583333	     -1.40365076	      0.32855826	     -1.30503186	     -0.73919276	      0.95955956	      0.29019099	    -23.21605758	      0.01102397	      4.26281739	     -9.74488217	     -7.80442202	    -22.38137225	     16.53367237	     21.63148885	     -0.05705629	      4.67684242	     -4.14482819	      0.00000000	      0.00000000	      0.00000000	      0.00000000	     -0.00569258	      0.00000000	     -6.93724255	     -6.56735088	     -3.00229103	      3.73766562
      0.05000000	     -1.52281150	      0.59049665	     -1.30416855	     -0.73234282	      0.95858306	      0.28934080	    -22.97457021	     -0.32126263	      3.78278570	    -10.53279448	     -8.51286451	    -22.38860450	     16.58354649	     21.70449997	      0.26242072	      4.53458487	     -4.64179823	      0.00000000	      0.00000000	      0.00000000	      0.00000000	     -0.00607539	      0.00000000	     -7.40667197	     -6.34581842	     -3.36677404	      3.70956739
      0.05416667	     -1.52522385	      0.71635528	     -1.21938305	     -0.72576301	      0.95783643	      0.28830624	    -22.99322683	     -0.43608860	      3.86981927	    -11.07013702	     -8.81069118	    -22.33355791	     16.61267363	     21.73555057	      0.48620680	      4.54383093	     -5.25720701	      0.00000000	      0.00000000	      0.00000000	      0.00000000	     -0.00663914	      0.00000000	     -7.85052775	     -6.32330987	     -3.56618476	      3.68955558
      0.05833333	     -1.95522844	      0.99779818	     -1.04599990	     -0.71899061	      0.95653398	      0.28711512	    -22.26517471	     -0.77586687	      3.01070934	    -12.08057824	     -9.82526977	    -22.28222174	     19.34036056	     22.23742631	      0.89960843	      4.57690133	     -5.92193026	      0.00000000	      0.00000000	      0.00000000	      0.00000000	     -0.00689600	      0.00000000	     -8.17665246	     -5.75125829	     -3.92840215	      3.46636400
      0.06250000	     -1.91468270	      1.13526193	     -0.96464602	     -0.71252865	      0.95607916	      0.28607168	    -22.20509085	     -0.90813403	      3.09015336	    -12.79010892	    -10.24884726	    -22.20831535	     19.32628957	     22.21013823	      1.13857418	      4.58968009	     -6.53412788	      0.00000000	      0.00000000	      0.00000000	      0.00000000	     -0.00741033	      0.00000000	     -8.52552908	     -5.80127939	     -4.14864810	      3.43019108
      0.06666667	     -2.05585429	      1.43555008	     -0.90768178	     -0.70584778	      0.95546466	      0.28510429	    -21.75108548	     -1.28311628	      2.58759987	    -13.82988222	    -11.24651715	    -22.17675728	     19.34368480	     22.33805084	      1.52941015	      4.44309450	     -7.12197261	      0.00000000	      0.00000000	      0.00000000	      0.00000000	     -0.00767769	      0.00000000	     -8.73114050	     -5.59460806	     -4.54903558	      3.32611548
      0.07083333	     -2.02559162	      1.59245505	     -0.77605566	     -0.69950596	      0.95521045	      0.28398681	    -21.61280296	     -1.40899117	      2.71862906	    -14.61543919	    -11.72496557	    -22.08481396	     19.35154259	     22.33958323	      1.81042280	      4.50884230	     -7.77783896	      0.00000000	      0.00000000	      0.00000000	      0.00000000	     -0.00808800	      0.00000000	     -8.95825914	     -5.65258200	     -4.79997098	      3.27418437
      0.07500000	     -2.51445969	      1.87312165	     -0.54263075	     -0.69290675	      0.95425981	      0.28267771	    -20.66767495	     -1.73338590	      2.04801489	    -15.84984948	    -12.94656409	    -22.10452135	     19.79125505	     22.93004539	      2.25479705	      4.54065330	     -8.52739363	      0.00000000	      0.00000000	      0.00000000	      0.00000000	     -0.00816744	      0.00000000	     -8.97811699	     -5.05490429	     -5.15058207	      2.99696135
      0.07916667	     -2.43619723	      2.03612635	     -0.39634553	     -0.68674230	      0.95430458	      0.28155545	    -20.46341790	     -1.85175444	      2.25125603	    -16.79144888	    -13.51625348	    -21.97144890	     19.80166128	     22.88670346	      2.54882594	      4.62201031	     -9.20557761	      0.00000000	      0.00000000	      0.00000000	      0.00000000	     -0.00844982	      0.00000000	     -9.08473879	     -5.21116386	     -5.40984635	      2.93367096
      0.08333333	     -2.38910820	      2.24341111	     -0.33779019	     -0.68058875	      0.95433765	      0.28055320	    -20.04509116	     -2.10778454	      2.15187141	    -18.00458834	    -14.44960212	    -21.81710280	     19.77959347	     22.87739339	      2.85236149	      4.60445480	     -9.91266521	      0.00000000	      0.00000000	      0.00000000	      0.00000000	     -0.00869455	      0.00000000	     -9.00890814	     -5.32490094	     -5.70185124	      2.82612322
